<?xml version="1.0" encoding="UTF-8" ?>
<!DOCTYPE svg PUBLIC "-//W3C//DTD SVG 1.1//EN" "http://www.w3.org/Graphics/SVG/1.1/DTD/svg11.dtd">
<svg width="1200pt" height="408pt" viewBox="0 0 1200 408" version="1.1" xmlns="http://www.w3.org/2000/svg">
<g id="#2d6001ff">
<path fill="#2d6001" opacity="1.00" d=" M 610.33 0.00 L 611.05 0.00 C 614.71 0.98 617.57 3.51 620.27 6.02 C 623.52 6.05 626.77 6.09 630.03 6.21 C 628.17 10.93 625.35 15.17 622.07 19.01 C 618.43 19.99 614.90 21.34 611.46 22.87 C 613.94 24.19 616.74 26.01 619.64 24.75 C 627.04 22.85 631.10 15.08 638.64 13.61 C 643.74 12.21 648.30 9.40 652.49 6.24 C 654.61 7.99 657.09 9.44 658.67 11.75 C 657.99 16.43 656.15 20.83 655.09 25.42 C 657.45 27.13 659.82 28.84 662.16 30.59 C 669.32 29.49 676.01 26.46 683.19 25.44 C 685.12 28.92 686.06 32.79 686.35 36.74 C 682.91 38.43 679.16 39.68 676.19 42.17 C 677.28 48.36 683.64 51.15 688.13 54.62 C 689.59 53.64 691.06 52.66 692.52 51.66 C 692.53 49.45 692.53 47.24 692.55 45.03 C 693.67 44.01 694.80 42.99 695.94 41.97 C 700.16 44.03 704.39 46.07 708.63 48.12 C 708.78 52.01 707.84 55.77 705.61 58.98 C 706.89 63.69 706.70 68.61 705.68 73.36 C 708.40 73.59 711.00 72.76 713.28 71.30 C 715.17 64.06 716.55 55.40 723.84 51.53 C 726.91 51.93 729.77 53.17 732.64 54.28 C 733.15 59.11 733.00 64.65 736.59 68.42 C 739.90 71.98 745.08 72.12 749.56 72.78 C 748.49 74.77 747.38 76.74 746.20 78.67 C 737.31 79.22 728.67 81.66 719.77 82.00 C 718.73 83.50 717.72 85.02 716.74 86.55 C 714.27 87.55 711.88 88.74 709.54 90.00 C 710.79 91.64 711.94 93.40 713.49 94.80 C 718.69 95.34 723.83 93.73 729.03 93.62 C 733.66 93.39 738.93 94.19 742.16 97.84 C 742.98 99.98 742.57 102.42 742.78 104.69 C 738.98 107.79 734.50 110.04 729.45 109.42 C 727.34 110.97 725.23 112.51 723.14 114.08 C 719.70 111.70 716.51 109.00 713.45 106.17 C 707.54 106.16 701.63 106.53 695.84 107.75 C 697.45 109.29 699.07 110.82 700.70 112.35 C 702.76 112.34 704.83 112.34 706.91 112.34 C 712.70 117.10 719.37 120.66 725.02 125.61 C 729.71 125.09 734.36 123.85 739.11 124.03 C 741.20 125.19 741.94 127.73 743.18 129.64 C 738.35 131.38 733.67 133.54 729.44 136.48 C 729.46 138.85 729.48 141.22 729.51 143.60 C 724.79 147.21 718.56 147.23 713.22 149.45 C 708.32 145.08 704.76 139.54 700.48 134.62 C 697.65 137.80 695.24 141.31 692.79 144.78 C 690.55 144.78 688.30 144.79 686.07 144.81 C 683.92 141.93 681.76 139.06 679.49 136.28 C 675.21 137.55 672.08 140.80 670.08 144.69 C 668.46 145.22 666.85 145.75 665.24 146.28 C 664.56 148.70 663.84 151.12 663.13 153.54 C 659.08 151.11 656.12 147.18 651.90 145.07 C 645.61 142.93 641.76 149.69 636.48 151.65 C 635.30 150.37 634.15 149.09 633.00 147.80 C 633.01 145.72 633.02 143.65 633.04 141.57 C 637.07 139.19 640.65 136.09 643.22 132.15 C 640.20 131.38 637.15 130.69 634.09 130.14 C 629.71 135.71 628.17 142.67 626.23 149.32 C 625.21 153.37 621.87 156.63 621.88 160.94 C 621.73 167.34 621.95 173.74 621.85 180.14 C 625.86 183.93 630.27 187.37 635.37 189.60 C 642.06 192.54 649.06 194.75 655.61 198.03 C 642.57 202.31 628.73 198.36 615.42 200.75 C 613.43 199.58 611.50 197.93 609.09 197.86 C 603.65 197.59 598.45 199.62 593.05 199.81 C 582.50 200.46 571.74 200.53 561.43 197.94 C 563.64 192.71 568.01 188.98 571.90 185.02 C 576.38 183.30 580.51 180.87 584.70 178.56 C 584.69 166.89 585.42 154.99 582.59 143.55 C 581.59 139.24 579.36 135.36 576.77 131.81 C 575.68 132.86 574.59 133.91 573.52 134.97 C 573.52 138.34 573.53 141.71 573.55 145.08 C 572.00 146.01 570.50 147.02 568.84 147.73 C 565.40 145.76 562.73 142.76 560.05 139.90 C 556.71 143.34 553.58 147.28 553.75 152.37 C 551.77 153.14 549.76 153.87 547.75 154.58 C 546.16 150.84 544.95 146.94 544.22 142.94 C 542.05 141.22 539.85 139.52 537.67 137.82 C 533.85 139.83 530.54 142.66 528.10 146.23 C 519.22 148.04 510.22 149.35 501.15 149.53 C 499.89 148.30 498.62 147.08 497.37 145.86 C 497.80 143.80 497.87 141.14 500.01 140.04 C 504.61 137.44 510.04 137.18 515.17 136.61 C 515.79 135.15 516.40 133.69 517.03 132.23 C 521.12 131.23 525.39 130.23 528.62 127.33 C 531.42 126.34 534.18 125.24 536.88 124.00 C 533.57 119.98 528.80 117.68 523.75 116.70 C 522.82 114.10 521.78 111.54 520.59 109.05 C 517.12 109.80 513.61 110.66 510.56 112.54 C 506.38 115.18 501.12 114.56 496.74 116.65 C 491.53 119.38 485.95 121.48 481.44 125.36 C 478.00 121.85 474.66 118.20 470.67 115.31 C 468.45 113.33 465.46 115.08 462.95 115.30 C 458.87 116.00 453.57 117.02 450.48 113.53 C 448.01 110.90 450.73 107.67 452.57 105.57 C 458.15 99.76 466.79 99.43 473.33 95.33 C 473.78 93.06 473.65 90.73 473.74 88.44 C 478.67 83.74 484.40 79.89 490.71 77.27 C 495.73 78.86 501.66 77.84 505.84 81.58 C 505.85 82.40 505.86 84.04 505.86 84.86 C 506.73 86.12 507.73 87.33 508.39 88.74 C 508.43 90.47 507.83 92.15 507.57 93.85 C 509.42 95.22 511.43 97.14 513.96 96.31 C 518.60 94.83 522.43 91.61 526.75 89.43 C 521.81 83.25 514.79 79.08 510.32 72.49 C 512.35 69.03 514.51 65.64 516.86 62.38 C 522.16 63.31 527.43 65.18 532.89 64.56 C 533.13 58.87 531.44 53.34 529.96 47.91 C 528.41 48.54 526.87 49.17 525.33 49.79 C 521.29 47.04 517.07 44.57 513.11 41.71 C 520.27 40.17 527.32 37.91 533.49 33.86 C 530.62 31.75 527.62 29.83 524.54 28.04 C 525.99 25.74 527.06 22.67 529.94 21.80 C 534.04 20.18 538.42 21.89 542.57 22.42 C 543.96 23.66 545.37 24.88 546.81 26.07 C 547.82 24.36 548.80 22.62 549.75 20.87 C 554.57 20.96 559.46 21.47 563.82 23.68 C 563.15 25.34 562.48 27.00 561.81 28.66 C 564.61 31.69 567.19 34.98 570.46 37.53 C 572.65 39.41 575.70 39.17 578.39 39.38 C 577.82 34.85 576.26 30.51 575.83 25.96 C 575.57 22.58 578.00 19.90 579.79 17.30 C 579.82 15.25 579.84 13.19 579.87 11.14 C 589.54 6.28 599.53 1.62 610.33 0.00 M 598.83 34.21 C 601.09 36.42 604.15 37.01 607.20 37.12 C 607.27 38.96 607.22 40.82 607.53 42.65 C 608.76 43.84 610.37 44.54 611.83 45.42 C 612.55 41.59 613.51 37.78 613.64 33.87 C 612.87 32.66 611.58 31.64 610.07 31.82 C 606.22 32.04 602.53 33.25 598.83 34.21 M 622.32 45.09 C 621.85 47.65 620.34 49.74 618.60 51.59 C 619.70 52.55 620.80 53.52 621.90 54.48 C 624.37 51.98 627.25 49.59 628.48 46.17 C 629.20 44.14 628.47 42.00 628.22 39.95 C 625.95 41.21 622.74 42.09 622.32 45.09 M 594.05 44.58 C 591.83 47.58 591.61 51.25 592.54 54.78 C 594.40 53.34 597.47 52.55 597.97 49.93 C 597.75 47.59 595.43 46.25 594.05 44.58 M 647.45 46.71 C 648.07 48.83 648.71 50.95 649.34 53.08 C 653.49 54.40 657.85 55.57 662.23 54.67 C 660.53 51.28 658.15 47.43 653.72 48.11 C 652.78 47.39 651.86 46.65 650.95 45.92 C 649.78 46.18 648.61 46.44 647.45 46.71 M 636.45 53.05 C 636.14 54.66 636.11 56.29 636.00 57.91 C 638.35 56.25 640.65 54.53 642.92 52.77 C 642.27 51.22 641.61 49.67 640.99 48.12 C 639.42 49.70 637.48 51.04 636.45 53.05 M 605.80 56.30 C 606.27 57.66 606.75 59.01 607.24 60.36 C 605.59 61.76 603.95 63.17 602.30 64.56 C 606.15 64.90 610.02 64.56 613.87 64.30 C 614.38 62.82 614.90 61.33 615.43 59.85 C 614.24 58.06 613.09 56.25 611.99 54.40 C 609.92 55.03 607.86 55.67 605.80 56.30 M 538.24 59.82 C 538.72 67.77 539.66 75.69 541.24 83.49 C 542.74 82.30 544.26 81.12 545.80 79.95 C 546.70 74.55 549.49 69.78 551.02 64.57 C 552.76 63.46 554.48 62.30 556.18 61.11 C 555.00 59.37 553.78 57.66 552.52 55.98 C 547.66 56.88 543.06 58.76 538.24 59.82 M 561.92 59.78 C 563.08 61.41 564.29 63.01 565.57 64.56 C 567.14 63.76 568.79 63.06 570.24 62.02 C 569.57 59.73 568.23 57.72 566.99 55.71 C 565.25 57.00 563.55 58.35 561.92 59.78 M 555.62 72.40 C 557.38 72.39 559.15 72.37 560.92 72.35 C 561.87 70.92 562.83 69.50 563.78 68.07 C 562.50 66.21 561.26 64.33 560.04 62.44 C 557.68 65.31 556.24 68.75 555.62 72.40 M 587.44 66.48 C 589.16 67.47 590.89 68.45 592.62 69.45 C 592.97 67.69 593.31 65.92 593.60 64.15 C 591.52 64.88 589.48 65.67 587.44 66.48 M 671.48 72.35 C 678.67 72.44 686.02 72.59 693.00 70.59 C 690.99 68.30 688.06 67.61 685.14 67.39 C 686.72 66.81 688.27 66.19 689.84 65.54 C 687.43 64.26 684.75 62.99 681.97 63.82 C 677.47 64.89 671.83 66.92 671.48 72.35 M 621.81 67.68 C 621.82 69.34 621.84 71.00 621.86 72.66 C 625.54 71.57 629.12 70.22 632.75 68.98 C 629.49 66.73 625.50 67.38 621.81 67.68 M 569.85 78.54 C 569.70 82.46 571.28 86.07 573.77 89.02 C 574.13 87.30 575.41 85.42 574.31 83.73 C 573.24 81.68 571.47 80.13 569.85 78.54 M 680.11 82.06 C 676.99 83.41 673.98 86.05 674.43 89.79 C 676.56 90.35 678.70 90.87 680.85 91.37 C 682.41 90.44 683.99 89.52 685.59 88.63 C 688.28 89.92 691.06 91.29 694.11 91.37 C 696.23 90.30 696.05 87.86 696.33 85.85 C 692.69 86.21 690.70 83.28 689.20 80.47 C 686.16 80.92 683.08 81.23 680.11 82.06 M 559.08 88.72 C 559.97 91.72 560.91 94.72 561.28 97.84 C 557.87 97.25 554.44 96.79 551.00 96.59 C 552.98 100.14 555.24 103.54 557.89 106.64 C 561.38 104.86 564.77 102.89 568.42 101.42 C 572.15 99.89 574.86 96.82 577.21 93.66 C 573.49 91.87 569.53 90.21 566.90 86.88 C 564.27 87.43 561.67 88.05 559.08 88.72 M 650.64 94.77 C 655.11 97.75 658.45 101.99 661.02 106.65 C 663.05 105.57 665.03 104.38 666.95 103.11 C 666.84 99.01 666.39 94.91 665.05 91.01 C 663.81 92.77 662.60 94.54 661.37 96.28 C 659.60 93.33 658.30 90.12 657.24 86.85 C 654.03 88.52 651.26 91.03 650.64 94.77 M 628.35 93.48 C 629.88 94.99 631.40 96.51 632.93 98.03 C 633.43 96.53 633.94 95.04 634.45 93.54 C 634.08 93.06 633.33 92.10 632.95 91.62 C 631.41 92.24 629.88 92.87 628.35 93.48 M 510.54 98.12 C 511.25 100.57 511.76 103.45 514.09 104.93 C 516.87 106.73 520.49 108.45 523.75 106.82 C 525.91 105.90 528.86 104.29 528.57 101.54 C 527.54 100.25 526.30 99.17 525.12 98.04 C 520.26 98.09 515.40 98.02 510.54 98.12 M 576.52 109.39 C 577.36 110.24 578.19 111.15 579.16 111.88 C 581.06 111.78 582.88 111.23 584.74 110.87 C 584.25 106.59 583.52 102.35 582.64 98.15 C 579.22 100.99 577.13 105.01 576.52 109.39 M 602.56 126.04 C 602.40 129.76 603.94 133.21 605.36 136.55 C 607.56 137.07 609.76 137.60 611.97 138.11 C 616.33 133.27 620.72 128.45 625.06 123.59 C 624.04 120.38 622.83 117.24 621.48 114.16 C 618.84 116.02 616.54 118.27 614.55 120.81 C 612.10 118.96 610.51 116.38 610.12 113.32 C 613.08 111.32 614.02 108.05 613.85 104.63 C 612.09 103.04 610.35 101.44 608.61 99.84 C 605.58 108.28 602.69 116.98 602.56 126.04 M 591.11 109.03 C 592.25 110.14 593.40 111.25 594.55 112.36 C 596.32 110.49 599.52 109.01 599.15 105.99 C 598.48 104.09 597.18 102.52 596.10 100.85 C 593.24 102.74 591.51 105.63 591.11 109.03 M 544.43 106.15 C 544.06 106.61 543.32 107.54 542.95 108.01 C 543.47 109.52 543.98 111.03 544.50 112.55 C 546.10 111.03 547.71 109.52 549.32 108.00 C 547.68 107.39 546.06 106.76 544.43 106.15 M 549.46 110.96 C 551.70 113.25 553.95 115.53 556.25 117.76 C 557.90 116.24 559.48 114.64 561.00 112.98 C 559.78 111.74 558.64 110.40 557.26 109.34 C 554.60 109.54 552.03 110.31 549.46 110.96 M 631.39 113.17 C 632.08 115.33 632.19 118.62 635.07 118.98 C 638.10 119.22 640.57 116.70 643.23 115.51 C 642.71 112.29 640.52 110.15 637.50 109.13 C 635.48 110.50 633.43 111.84 631.39 113.17 M 649.23 121.95 C 649.23 124.09 649.23 126.24 649.25 128.39 C 651.82 129.71 654.18 131.40 656.12 133.56 C 657.43 132.98 658.76 132.41 660.09 131.83 C 661.12 128.64 663.06 125.90 665.21 123.37 C 660.57 120.44 654.11 118.48 649.23 121.95 Z" />
</g>
<g id="#1d1d1bff">
<path fill="#1d1d1b" opacity="1.00" d=" M 94.72 153.66 C 150.75 129.19 206.77 104.67 262.80 80.20 C 258.78 84.66 256.38 91.24 250.33 93.38 C 192.71 118.20 135.18 143.24 77.58 168.11 C 80.38 164.73 82.90 161.11 85.95 157.94 C 88.54 155.94 91.79 155.05 94.72 153.66 Z" />
<path fill="#1d1d1b" opacity="1.00" d=" M 800.72 91.15 C 804.23 87.59 807.76 84.05 811.29 80.50 C 816.04 84.90 820.78 89.30 825.53 93.70 C 823.15 96.41 820.77 99.12 818.40 101.84 C 822.46 105.65 826.51 109.48 830.57 113.29 C 827.31 116.81 824.04 120.32 820.78 123.83 C 815.78 119.47 810.75 115.15 805.86 110.67 C 808.45 107.94 811.06 105.22 813.67 102.51 C 809.30 98.78 804.88 95.11 800.72 91.15 Z" />
<path fill="#1d1d1b" opacity="1.00" d=" M 53.09 84.18 C 58.90 80.72 66.12 81.76 72.50 82.60 C 74.61 83.16 77.99 83.19 78.33 85.99 C 78.87 90.82 76.72 95.45 74.62 99.67 C 71.80 104.88 68.29 109.95 63.38 113.41 C 59.82 115.95 55.32 116.23 51.17 117.03 C 58.07 111.20 65.20 105.56 71.26 98.82 C 65.87 97.98 60.38 98.15 54.95 98.40 C 50.89 98.47 47.99 101.69 45.03 104.04 C 46.17 97.04 47.19 88.93 53.09 84.18 Z" />
<path fill="#1d1d1b" opacity="1.00" d=" M 139.17 82.26 C 143.16 80.30 147.98 82.04 150.19 85.77 C 155.13 92.18 151.81 102.44 144.40 105.27 C 140.28 106.83 134.36 105.74 133.05 100.95 C 131.09 94.42 133.08 85.91 139.17 82.26 M 137.48 88.60 C 134.23 90.04 133.87 96.08 137.46 97.37 C 140.32 98.30 143.55 98.37 146.44 97.48 C 148.93 96.85 148.48 93.50 146.90 92.14 C 144.53 89.72 140.95 87.62 137.48 88.60 Z" />
<path fill="#1d1d1b" opacity="1.00" d=" M 351.63 83.73 C 357.19 80.52 364.04 81.40 370.14 82.15 C 372.94 82.61 377.34 83.09 376.85 86.97 C 376.16 95.83 370.98 103.78 364.99 110.08 C 361.04 114.45 355.08 115.63 349.58 116.74 C 356.34 110.77 363.74 105.40 369.56 98.44 C 364.04 97.67 358.43 97.74 352.88 98.11 C 349.06 98.31 346.40 101.45 343.69 103.76 C 344.46 96.66 345.64 88.43 351.63 83.73 Z" />
<path fill="#1d1d1b" opacity="1.00" d=" M 872.50 88.69 C 873.10 86.20 872.88 83.45 874.57 81.34 C 881.93 85.34 887.16 92.51 889.51 100.47 C 890.41 104.33 888.28 108.47 885.12 110.66 C 882.22 110.36 879.66 108.89 877.02 107.81 C 873.06 114.04 868.63 120.12 862.81 124.76 C 855.06 130.94 847.36 137.80 837.62 140.61 C 848.81 128.56 863.28 119.85 873.61 106.94 C 871.53 104.18 867.19 102.00 868.29 97.93 C 868.80 94.49 871.29 91.85 872.50 88.69 Z" />
<path fill="#1d1d1b" opacity="1.00" d=" M 933.20 84.16 C 934.42 81.95 938.07 80.81 939.54 83.39 C 941.98 87.88 938.89 92.61 937.67 96.97 C 937.00 94.86 936.74 92.48 935.06 90.86 C 934.04 91.87 932.96 92.89 932.45 94.27 C 930.00 100.17 929.43 106.62 927.35 112.64 C 924.31 108.09 923.96 102.34 921.00 97.71 C 919.63 99.23 918.77 102.37 916.15 101.75 C 910.97 100.72 908.99 93.30 912.61 89.63 C 914.88 87.51 918.67 88.12 920.54 90.49 C 923.74 94.40 925.14 99.39 927.33 103.88 C 929.02 97.27 929.38 90.01 933.20 84.16 Z" />
<path fill="#1d1d1b" opacity="1.00" d=" M 847.60 161.60 C 908.59 135.09 969.52 108.45 1030.50 81.92 C 1027.70 86.37 1025.34 91.09 1022.33 95.38 C 1019.89 97.53 1016.57 98.29 1013.70 99.69 C 954.69 125.31 895.70 150.99 836.69 176.62 C 839.25 172.52 841.59 168.28 844.24 164.23 C 844.96 162.92 846.26 162.17 847.60 161.60 Z" />
<path fill="#1d1d1b" opacity="1.00" d=" M 1058.32 81.98 C 1060.75 81.99 1061.41 84.89 1062.42 86.62 C 1073.68 112.94 1074.06 142.04 1075.87 170.14 C 1076.53 180.04 1077.25 189.95 1078.66 199.78 C 1079.80 206.21 1081.20 213.22 1086.05 217.98 C 1088.16 220.15 1091.32 220.35 1094.13 220.88 C 1090.89 211.93 1085.51 202.72 1088.06 192.88 C 1090.48 179.28 1103.72 167.65 1117.90 169.73 C 1139.27 173.22 1159.81 180.46 1181.09 184.45 C 1187.00 185.69 1192.98 186.61 1198.96 187.51 C 1197.92 192.29 1197.11 197.31 1194.45 201.50 C 1176.35 204.68 1160.62 214.73 1143.97 221.92 C 1129.91 228.04 1115.44 234.00 1100.06 235.66 C 1093.85 236.17 1086.94 236.16 1081.69 232.34 C 1076.05 227.55 1073.74 220.11 1072.49 213.07 C 1065.76 179.99 1068.33 145.53 1058.85 112.94 C 1057.43 107.54 1055.40 102.29 1054.43 96.79 C 1055.31 91.78 1056.76 86.83 1058.32 81.98 M 1093.34 195.28 C 1092.09 197.40 1093.54 199.63 1094.45 201.55 C 1097.51 207.29 1099.94 213.32 1102.60 219.25 C 1124.54 215.49 1145.62 207.74 1165.41 197.64 C 1145.82 194.29 1127.28 184.63 1107.01 185.80 C 1101.05 185.77 1095.94 190.21 1093.34 195.28 Z" />
<path fill="#1d1d1b" opacity="1.00" d=" M 1087.02 87.50 C 1087.11 85.31 1087.23 83.12 1087.42 80.93 C 1094.60 86.07 1099.11 94.27 1100.54 102.91 C 1102.28 113.43 1100.88 124.85 1094.96 133.90 C 1097.50 123.16 1099.47 111.70 1096.04 100.91 C 1094.53 95.60 1091.11 91.11 1087.02 87.50 Z" />
<path fill="#1d1d1b" opacity="1.00" d=" M 1146.65 84.68 C 1147.73 82.45 1151.11 80.66 1153.03 82.96 C 1155.99 87.24 1152.97 92.27 1151.57 96.54 C 1150.67 94.81 1150.81 92.24 1148.97 91.16 C 1146.98 92.30 1146.26 94.59 1145.50 96.59 C 1143.59 101.82 1143.02 107.41 1141.23 112.67 C 1138.64 107.88 1137.56 102.46 1134.86 97.71 C 1133.48 99.14 1132.70 102.38 1130.15 101.74 C 1125.01 100.94 1122.90 93.90 1126.03 90.02 C 1128.26 87.50 1132.50 87.94 1134.61 90.41 C 1137.83 94.20 1139.01 99.18 1141.14 103.58 C 1142.82 97.27 1143.27 90.41 1146.65 84.68 Z" />
<path fill="#1d1d1b" opacity="1.00" d=" M 85.22 114.95 C 86.09 107.69 90.56 101.14 96.29 96.75 C 93.63 101.21 89.46 104.86 88.19 110.07 C 87.65 112.57 87.34 115.98 90.03 117.36 C 91.98 116.61 93.76 115.50 95.58 114.48 C 94.61 117.45 93.46 121.16 89.98 121.96 C 86.28 122.29 84.67 117.99 85.22 114.95 Z" />
<path fill="#1d1d1b" opacity="1.00" d=" M 1091.38 146.48 C 1125.79 131.54 1160.16 116.50 1194.56 101.53 C 1192.25 104.76 1190.97 109.36 1186.90 110.81 C 1152.70 125.57 1118.58 140.48 1084.39 155.26 C 1086.51 152.23 1087.63 147.92 1091.38 146.48 Z" />
<path fill="#1d1d1b" opacity="1.00" d=" M 259.41 118.87 C 262.92 115.33 266.46 111.82 270.00 108.30 C 274.72 112.78 279.43 117.27 284.19 121.72 C 281.07 125.27 277.90 128.78 274.73 132.29 C 269.58 127.87 264.39 123.49 259.41 118.87 Z" />
<path fill="#1d1d1b" opacity="1.00" d=" M 1008.54 124.39 C 1010.44 118.52 1014.15 113.27 1019.04 109.52 C 1015.93 114.87 1010.68 119.49 1010.46 126.07 C 1010.18 127.93 1011.49 129.46 1013.08 130.23 C 1014.95 129.49 1016.69 128.46 1018.49 127.55 C 1017.56 129.79 1017.07 132.50 1014.99 134.02 C 1013.02 135.63 1009.71 134.75 1008.73 132.43 C 1007.59 129.91 1007.70 126.98 1008.54 124.39 Z" />
<path fill="#1d1d1b" opacity="1.00" d=" M 3.58 147.78 C 8.31 133.93 17.14 121.31 28.93 112.56 C 26.16 118.03 22.09 122.63 18.47 127.53 C 12.89 135.27 7.41 144.11 7.87 154.03 C 7.80 157.94 10.20 162.04 14.10 163.09 C 19.20 163.15 22.72 158.77 26.44 155.92 C 25.95 161.93 24.53 168.63 19.29 172.35 C 16.48 174.83 12.60 174.82 9.08 174.87 C 4.69 184.12 3.66 195.69 9.37 204.62 C 15.27 213.87 26.20 217.88 36.25 220.83 C 61.62 227.75 88.45 223.36 113.25 216.16 C 134.03 210.10 153.99 201.58 173.64 192.58 C 175.42 191.78 177.36 191.08 179.34 191.45 C 180.09 196.27 178.99 201.16 179.59 205.99 C 180.20 210.14 183.93 212.92 187.59 214.37 C 193.34 216.59 199.79 216.90 205.79 215.58 C 211.35 214.28 215.66 210.23 219.51 206.24 C 217.34 197.86 214.28 189.25 207.47 183.48 C 209.01 177.45 210.55 171.41 212.16 165.39 C 218.51 174.13 223.88 184.03 225.00 194.93 C 226.08 203.83 223.52 213.04 218.07 220.14 C 209.92 231.15 192.26 234.41 181.29 225.80 C 175.25 221.09 174.24 212.96 174.30 205.82 C 160.83 213.69 146.74 220.46 132.25 226.23 C 128.25 227.64 125.99 231.50 124.03 234.99 C 122.70 237.68 121.48 241.14 123.02 243.97 C 125.07 246.63 127.95 243.46 130.20 242.75 C 128.94 245.38 128.18 249.12 124.87 249.85 C 121.75 250.19 119.58 246.86 119.71 244.03 C 119.67 237.90 123.51 232.78 126.94 228.05 C 110.98 234.03 94.39 238.49 77.47 240.68 C 61.01 242.58 43.87 242.61 28.05 237.11 C 21.10 234.68 14.00 231.60 9.07 225.92 C 3.53 219.68 0.90 211.42 0.00 203.25 L 0.00 198.74 C 0.86 189.99 3.18 181.35 7.17 173.50 C 0.35 166.79 0.63 156.23 3.58 147.78 Z" />
<path fill="#1d1d1b" opacity="1.00" d=" M 301.51 142.85 C 303.62 134.04 309.08 126.12 316.38 120.80 C 312.28 128.05 304.85 134.09 304.66 143.02 C 304.27 145.83 305.89 149.03 308.97 149.24 C 311.34 148.39 313.28 146.73 315.36 145.37 C 314.54 148.52 314.02 152.19 311.23 154.29 C 309.03 156.37 305.09 156.44 303.15 153.96 C 300.64 150.87 300.78 146.55 301.51 142.85 Z" />
<path fill="#1d1d1b" opacity="1.00" d=" M 950.95 155.89 C 953.91 144.38 961.00 133.92 970.49 126.78 C 966.65 134.32 959.94 140.08 956.87 148.08 C 955.35 151.78 954.48 155.90 955.23 159.88 C 955.79 162.43 958.30 164.63 960.97 164.38 C 964.09 163.46 966.37 160.95 969.00 159.18 C 968.28 163.18 967.59 167.55 964.57 170.53 C 961.90 173.54 956.70 174.31 953.72 171.35 C 949.59 167.43 949.83 161.03 950.95 155.89 Z" />
<path fill="#1d1d1b" opacity="1.00" d=" M 355.53 127.61 C 366.53 135.76 367.73 152.34 361.07 163.60 C 361.98 156.79 363.66 149.83 361.97 142.99 C 361.18 138.69 358.59 135.02 355.54 131.99 C 355.54 130.90 355.53 128.71 355.53 127.61 Z" />
<path fill="#1d1d1b" opacity="1.00" d=" M 1162.48 149.11 C 1165.31 141.53 1170.08 134.47 1176.73 129.73 C 1172.64 137.09 1165.26 143.11 1164.78 152.06 C 1164.24 154.81 1165.95 158.18 1168.98 158.33 C 1171.50 157.59 1173.30 155.51 1175.41 154.04 C 1174.76 157.35 1174.48 161.36 1171.48 163.50 C 1169.14 165.61 1165.08 165.46 1163.20 162.85 C 1160.29 158.90 1160.86 153.47 1162.48 149.11 Z" />
<path fill="#1d1d1b" opacity="1.00" d=" M 193.17 146.25 C 194.19 144.18 195.42 141.67 197.88 141.09 C 199.74 140.82 201.26 142.37 201.62 144.08 C 202.80 148.34 200.36 152.33 198.93 156.19 C 198.38 154.02 197.77 151.86 197.07 149.74 C 195.77 151.16 194.13 152.43 193.57 154.37 C 191.77 159.72 190.65 165.27 189.46 170.79 C 188.97 170.80 188.00 170.81 187.51 170.82 C 186.44 166.12 184.78 161.58 182.63 157.26 C 181.13 158.89 179.76 161.82 177.04 160.89 C 172.27 159.71 170.90 153.11 173.53 149.40 C 175.44 146.88 179.60 147.01 181.59 149.37 C 185.14 153.34 186.59 158.63 188.77 163.39 C 189.98 157.62 190.93 151.73 193.17 146.25 Z" />
<path fill="#1d1d1b" opacity="1.00" d=" M 378.26 167.29 C 381.51 161.85 380.49 154.98 384.12 149.70 C 386.08 153.00 387.23 156.69 387.74 160.49 C 389.48 172.63 390.17 184.92 392.19 197.02 C 394.16 208.53 401.44 218.55 410.79 225.29 C 421.22 232.79 433.46 237.36 445.84 240.45 C 467.76 245.96 490.46 247.40 512.99 247.66 C 566.32 247.82 619.39 240.81 671.78 231.34 C 710.24 224.10 748.52 215.57 785.94 204.05 C 794.64 201.27 803.32 198.40 811.74 194.85 C 812.44 184.86 809.05 174.91 802.90 167.07 C 805.70 162.23 808.49 157.37 811.31 152.53 C 818.72 161.63 823.56 173.63 821.23 185.47 C 820.03 193.34 814.89 199.73 809.66 205.39 C 809.18 215.21 808.09 225.29 811.09 234.86 C 813.12 241.15 815.09 248.29 820.78 252.32 C 826.12 255.79 833.42 252.49 836.15 247.18 C 840.62 238.88 842.91 229.61 847.27 221.25 C 852.43 211.09 859.24 200.96 869.67 195.66 C 873.38 193.85 878.64 192.71 881.73 196.26 C 888.23 203.56 891.55 213.44 899.38 219.63 C 904.47 224.07 911.33 226.52 918.10 225.58 C 927.15 224.45 935.03 219.40 942.84 215.05 C 938.19 211.59 933.54 207.86 928.00 205.94 C 923.18 204.26 918.47 207.06 913.92 208.34 C 915.13 203.96 917.00 199.81 918.85 195.68 C 919.93 192.80 923.18 191.98 925.74 190.90 C 939.40 185.90 954.39 182.50 968.88 185.68 C 976.57 187.20 984.25 189.47 990.95 193.67 C 989.23 198.14 987.38 202.56 985.60 207.01 C 979.03 209.56 972.69 212.66 966.29 215.58 C 973.71 220.34 981.88 225.49 991.04 225.08 C 999.31 224.47 1004.73 217.32 1009.10 211.06 C 1011.49 207.96 1013.42 203.99 1017.43 202.72 C 1020.38 198.09 1023.36 193.07 1028.34 190.36 C 1032.59 187.90 1038.44 188.52 1041.88 192.12 C 1046.29 196.54 1047.51 203.00 1048.54 208.92 C 1049.80 216.77 1049.47 225.72 1044.03 232.03 C 1041.53 235.04 1037.27 234.16 1034.03 233.13 C 1025.53 230.26 1017.32 225.72 1011.52 218.73 C 1007.09 225.94 1002.19 233.49 994.59 237.68 C 988.22 241.09 980.60 239.45 974.42 236.46 C 966.77 232.77 960.05 227.52 953.12 222.70 C 939.33 230.61 925.77 241.94 908.97 241.36 C 905.72 245.55 901.95 250.30 902.62 255.95 C 902.60 257.43 903.76 258.58 905.20 258.73 C 907.03 258.15 908.63 257.03 910.30 256.10 C 909.21 258.61 908.65 261.86 905.90 263.12 C 903.17 264.32 900.02 261.97 899.96 259.09 C 899.40 252.33 903.27 246.20 907.52 241.28 C 897.30 239.34 888.84 231.99 883.95 223.02 C 881.75 219.27 880.17 215.02 876.98 211.96 C 874.50 209.69 870.92 211.04 868.43 212.52 C 863.78 215.36 859.72 219.09 856.10 223.14 C 850.62 229.17 848.76 237.31 845.58 244.60 C 842.75 251.15 841.06 258.68 835.56 263.64 C 831.96 267.08 826.23 267.37 821.96 265.04 C 816.39 262.04 812.92 256.41 810.08 250.96 C 803.72 237.85 803.15 222.63 805.49 208.46 C 789.26 216.15 772.10 221.62 754.96 226.90 C 705.76 241.66 655.39 252.48 604.55 259.72 C 558.77 265.71 512.13 269.73 466.17 263.33 C 444.06 259.88 421.13 254.03 403.63 239.36 C 391.41 229.30 384.21 213.78 384.04 198.00 C 384.10 188.48 383.67 178.97 382.46 169.53 C 381.47 176.69 379.73 184.26 374.45 189.56 C 369.02 195.32 360.96 197.21 353.39 198.06 C 353.50 204.72 355.15 211.38 354.03 218.03 C 352.91 225.49 351.02 233.22 346.35 239.31 C 341.42 244.83 334.97 248.67 328.95 252.87 C 325.42 255.20 323.27 259.17 322.18 263.16 C 321.52 265.47 322.11 268.87 324.86 269.44 C 326.58 268.65 328.15 267.59 329.78 266.63 C 328.78 269.10 328.30 272.33 325.68 273.67 C 323.14 274.99 320.06 272.63 319.70 270.02 C 318.52 264.96 321.60 260.28 323.59 255.86 C 303.87 268.57 281.67 276.78 259.59 284.36 C 246.68 287.60 233.35 288.67 220.15 290.14 C 213.03 290.86 205.89 291.74 198.72 291.55 C 202.65 290.04 206.71 288.95 210.73 287.73 C 236.53 279.83 261.56 269.66 286.55 259.55 C 300.79 253.56 314.70 246.76 327.96 238.84 C 334.26 234.97 341.29 231.82 346.22 226.14 C 348.80 223.38 348.39 219.30 347.80 215.88 C 345.78 205.28 340.22 195.87 336.55 185.84 C 336.51 180.25 338.32 174.81 340.11 169.57 C 343.82 174.29 347.89 179.45 354.11 180.75 C 364.20 183.17 373.75 175.80 378.26 167.29 M 946.98 199.94 C 950.00 202.68 953.06 205.39 956.11 208.10 C 960.77 205.55 965.47 203.09 970.32 200.91 C 962.73 198.87 954.70 198.24 946.98 199.94 M 1022.21 207.14 C 1026.46 211.34 1031.35 215.39 1037.55 215.95 C 1036.69 211.99 1035.68 207.26 1031.82 205.13 C 1028.50 203.82 1025.15 205.75 1022.21 207.14 Z" />
<path fill="#1d1d1b" opacity="1.00" d=" M 1023.79 155.78 C 1024.57 154.30 1027.09 153.06 1028.16 154.94 C 1029.70 157.91 1027.80 161.11 1027.05 164.02 C 1026.18 162.59 1025.51 161.08 1025.06 159.47 C 1022.16 164.22 1021.55 169.85 1019.72 175.01 C 1018.36 171.76 1017.23 168.42 1016.01 165.12 C 1014.70 165.94 1013.72 167.55 1012.05 167.55 C 1009.20 166.23 1007.69 162.29 1009.55 159.60 C 1010.98 157.86 1013.87 158.08 1015.27 159.76 C 1017.45 162.31 1018.39 165.63 1019.90 168.57 C 1020.99 164.27 1021.51 159.67 1023.79 155.78 Z" />
<path fill="#1d1d1b" opacity="1.00" d=" M 274.24 156.32 C 278.98 162.56 283.94 168.63 288.65 174.89 C 286.02 174.59 283.42 174.17 280.83 173.68 C 283.42 182.14 287.06 190.35 288.41 199.14 C 289.71 207.21 287.62 215.33 284.96 222.91 C 282.89 229.36 276.74 232.96 271.43 236.50 C 252.04 248.72 231.60 259.64 209.76 266.76 C 193.21 269.38 176.57 271.46 160.03 274.09 C 155.93 274.83 151.75 274.62 147.63 274.19 C 167.32 266.89 187.14 259.92 206.87 252.75 C 218.20 248.58 229.73 244.92 240.65 239.72 C 252.23 234.24 263.65 228.33 274.45 221.43 C 277.69 219.25 281.22 217.22 283.45 213.91 C 280.63 201.68 274.53 190.32 272.71 177.81 C 272.21 175.44 272.50 172.50 270.05 171.14 C 271.21 166.14 272.44 161.14 274.24 156.32 Z" />
<path fill="#1d1d1b" opacity="1.00" d=" M 899.35 157.62 C 895.63 163.85 889.67 169.32 889.37 177.04 C 888.97 179.40 890.44 182.16 893.04 182.27 C 895.06 181.35 896.76 179.90 898.57 178.63 C 897.76 181.71 897.13 185.43 894.08 187.15 C 891.43 188.74 887.79 187.00 886.88 184.18 C 885.72 180.66 886.49 176.82 887.65 173.40 C 889.97 167.19 894.08 161.65 899.35 157.62 Z" />
<path fill="#1d1d1b" opacity="1.00" d=" M 116.71 163.77 C 120.45 167.35 124.16 170.96 127.87 174.57 C 130.82 171.52 133.76 168.48 136.71 165.44 C 141.43 169.95 146.16 174.46 150.89 178.96 C 147.74 182.47 144.58 185.97 141.39 189.44 C 137.27 186.03 133.26 182.50 129.26 178.97 C 126.65 181.90 124.05 184.83 121.44 187.76 C 116.35 183.38 111.19 179.10 106.23 174.56 C 109.74 170.98 113.23 167.39 116.71 163.77 Z" />
<path fill="#1d1d1b" opacity="1.00" d=" M 58.07 169.97 C 59.22 167.88 62.19 165.46 64.37 167.66 C 67.12 172.03 64.74 177.27 62.93 181.53 C 62.05 179.73 62.75 175.90 59.96 175.89 C 54.99 181.86 56.15 190.43 52.23 196.83 C 50.71 192.00 49.23 187.13 46.89 182.62 C 45.64 183.90 44.85 185.83 43.08 186.51 C 37.92 186.01 35.08 179.22 38.06 175.10 C 40.07 172.27 44.56 172.88 46.51 175.47 C 49.61 179.25 50.80 184.14 53.06 188.40 C 54.32 182.18 54.89 175.58 58.07 169.97 Z" />
<path fill="#1d1d1b" opacity="1.00" d=" M 83.11 192.91 C 84.60 186.45 88.48 180.51 93.84 176.59 C 90.85 181.61 86.04 185.96 85.50 192.10 C 85.14 194.10 86.20 195.99 88.00 196.89 C 89.88 196.08 91.58 194.93 93.35 193.91 C 92.18 196.67 91.61 201.03 87.98 201.48 C 83.64 201.73 82.31 196.30 83.11 192.91 Z" />
<path fill="#1d1d1b" opacity="1.00" d=" M 376.51 229.04 C 381.32 233.50 386.02 238.06 390.79 242.55 C 388.42 245.27 386.05 247.98 383.66 250.68 C 387.70 254.52 391.77 258.34 395.83 262.17 C 392.68 265.68 389.53 269.19 386.38 272.70 C 381.24 268.25 376.01 263.91 371.06 259.25 C 373.67 256.61 376.30 253.99 378.93 251.37 C 374.64 247.54 370.36 243.72 366.08 239.90 C 369.57 236.29 373.06 232.68 376.51 229.04 Z" />
<path fill="#1d1d1b" opacity="1.00" d=" M 1007.09 259.13 C 1023.69 251.62 1040.25 244.03 1056.87 236.56 C 1054.80 239.18 1053.29 242.62 1050.02 243.96 C 1033.49 251.37 1017.01 258.87 1000.47 266.24 C 1002.40 263.67 1003.91 260.41 1007.09 259.13 Z" />
<path fill="#1d1d1b" opacity="1.00" d=" M 1143.54 250.71 C 1148.29 255.20 1153.02 259.72 1157.76 264.23 C 1154.49 267.72 1151.21 271.21 1147.94 274.69 C 1142.86 270.30 1137.77 265.92 1132.96 261.24 C 1136.48 257.72 1140.01 254.22 1143.54 250.71 Z" />
<path fill="#1d1d1b" opacity="1.00" d=" M 44.32 256.10 C 48.05 259.59 51.77 263.07 55.49 266.56 C 58.43 263.53 61.36 260.48 64.28 257.44 C 69.03 261.96 73.76 266.50 78.50 271.04 C 75.33 274.63 72.16 278.22 69.01 281.84 C 64.98 278.30 60.92 274.79 56.84 271.31 C 54.24 274.25 51.63 277.19 49.06 280.16 C 43.92 275.70 38.69 271.34 33.75 266.66 C 37.26 263.13 40.80 259.62 44.32 256.10 Z" />
<path fill="#1d1d1b" opacity="1.00" d=" M 591.99 281.88 C 595.01 277.93 598.82 274.68 602.19 271.04 C 606.96 275.53 611.68 280.05 616.42 284.57 C 613.16 288.06 609.87 291.52 606.62 295.01 C 601.78 290.59 596.47 286.67 591.99 281.88 Z" />
<path fill="#1d1d1b" opacity="1.00" d=" M 961.12 346.14 C 969.19 341.70 979.34 341.74 987.81 345.02 C 994.35 347.46 997.99 354.23 998.62 360.89 C 996.02 361.18 993.44 361.43 990.85 361.69 C 990.01 358.69 989.29 355.34 986.72 353.29 C 983.03 349.93 977.71 349.65 972.99 349.96 C 968.98 350.29 964.36 351.47 962.25 355.25 C 960.04 358.71 961.42 364.05 965.29 365.68 C 973.12 369.25 981.96 369.63 989.89 372.94 C 994.01 374.85 997.68 378.14 999.34 382.44 C 1001.96 389.19 999.50 397.54 993.55 401.71 C 986.64 407.10 977.26 407.29 968.98 405.93 C 963.35 405.02 957.87 402.12 954.69 397.28 C 952.32 393.88 951.41 389.75 950.83 385.72 C 953.42 385.49 956.02 385.27 958.62 385.02 C 959.40 388.32 959.97 392.03 962.62 394.44 C 967.85 399.10 975.42 399.93 982.10 398.76 C 985.88 398.08 989.90 396.35 991.60 392.65 C 993.95 388.60 991.89 383.14 987.79 381.16 C 978.48 376.40 966.85 377.29 958.41 370.64 C 950.45 364.47 952.59 350.79 961.12 346.14 Z" />
<path fill="#1d1d1b" opacity="1.00" d=" M 6.44 405.60 C 6.44 384.96 6.43 364.31 6.44 343.66 C 15.62 343.81 24.82 343.35 33.98 343.94 C 39.58 344.24 45.40 346.75 48.13 351.90 C 50.86 356.24 51.09 361.97 48.41 366.40 C 47.04 369.15 44.37 370.83 41.93 372.51 C 44.61 373.83 47.46 375.12 49.42 377.47 C 55.21 384.19 54.07 395.58 47.20 401.16 C 42.96 404.59 37.30 405.34 32.02 405.55 C 23.49 405.68 14.96 405.55 6.44 405.60 M 14.54 350.80 C 14.54 357.13 14.54 363.47 14.55 369.80 C 21.91 369.49 29.49 370.62 36.70 368.75 C 43.96 366.36 44.08 354.71 36.97 352.06 C 29.71 350.00 22.00 351.08 14.54 350.80 M 14.54 376.87 C 14.54 383.96 14.54 391.04 14.54 398.13 C 21.02 398.09 27.50 398.20 33.98 398.13 C 36.69 398.18 39.49 397.43 41.45 395.47 C 47.20 390.53 44.94 379.28 37.24 377.70 C 29.78 376.23 22.10 377.10 14.54 376.87 Z" />
<path fill="#1d1d1b" opacity="1.00" d=" M 86.26 405.60 C 86.28 384.95 86.23 364.30 86.29 343.65 C 88.99 343.66 91.70 343.67 94.40 343.68 C 94.40 364.32 94.40 384.95 94.41 405.59 C 91.69 405.59 88.98 405.60 86.26 405.60 Z" />
<path fill="#1d1d1b" opacity="1.00" d=" M 129.57 343.67 C 139.71 343.72 149.86 343.55 160.00 343.76 C 165.72 343.92 172.21 345.17 175.82 350.07 C 179.84 355.65 180.00 363.72 176.55 369.61 C 173.38 374.54 167.32 376.26 161.95 377.56 C 165.78 379.77 169.20 382.71 171.67 386.40 C 175.92 392.71 179.87 399.22 184.01 405.61 C 180.62 405.60 177.23 405.60 173.84 405.57 C 169.39 398.61 165.26 391.41 160.17 384.89 C 157.75 382.01 155.09 378.54 151.02 378.27 C 146.59 378.03 142.14 378.25 137.71 378.20 C 137.70 387.34 137.71 396.47 137.70 405.60 C 134.99 405.60 132.28 405.59 129.57 405.59 C 129.57 384.95 129.57 364.31 129.57 343.67 M 137.70 350.47 C 137.70 357.36 137.70 364.24 137.70 371.13 C 144.12 371.06 150.54 371.27 156.96 371.06 C 160.88 370.77 165.37 370.27 168.09 367.07 C 171.59 363.34 171.21 356.88 167.57 353.39 C 164.69 350.92 160.68 350.63 157.05 350.49 C 150.60 350.40 144.15 350.50 137.70 350.47 Z" />
<path fill="#1d1d1b" opacity="1.00" d=" M 211.12 343.67 C 225.89 343.67 240.66 343.66 255.44 343.67 C 255.43 346.06 255.43 348.46 255.43 350.86 C 242.52 366.57 230.24 382.81 216.95 398.20 C 230.12 398.20 243.30 398.21 256.47 398.19 C 256.48 400.68 256.48 403.17 256.49 405.66 C 240.11 405.67 223.73 405.66 207.35 405.66 C 207.59 402.45 206.50 398.65 209.02 396.08 C 221.28 381.04 232.97 365.53 245.61 350.80 C 234.11 350.80 222.62 350.80 211.12 350.80 C 211.12 348.42 211.12 346.04 211.12 343.67 Z" />
<path fill="#1d1d1b" opacity="1.00" d=" M 285.89 343.67 C 300.77 343.67 315.65 343.66 330.53 343.67 C 330.53 346.04 330.53 348.42 330.53 350.80 C 318.35 350.79 306.18 350.80 294.01 350.80 C 294.01 357.13 294.00 363.47 294.01 369.80 C 305.40 369.80 316.79 369.80 328.17 369.80 C 328.17 372.26 328.17 374.73 328.17 377.20 C 316.79 377.20 305.40 377.20 294.01 377.20 C 294.00 384.18 294.01 391.15 294.01 398.13 C 306.75 398.13 319.48 398.13 332.22 398.13 C 332.22 400.62 332.22 403.10 332.23 405.59 C 316.78 405.61 301.34 405.59 285.89 405.60 C 285.88 384.96 285.89 364.31 285.89 343.67 Z" />
<path fill="#1d1d1b" opacity="1.00" d=" M 365.04 343.67 C 367.86 343.66 370.68 343.66 373.51 343.67 C 373.51 364.31 373.50 384.95 373.51 405.60 C 370.69 405.59 367.86 405.60 365.04 405.60 C 365.03 384.96 365.04 364.31 365.04 343.67 Z" />
<path fill="#1d1d1b" opacity="1.00" d=" M 403.59 350.80 C 403.59 348.42 403.59 346.04 403.60 343.67 C 419.94 343.66 436.29 343.68 452.63 343.66 C 452.65 346.03 452.66 348.41 452.68 350.79 C 445.92 350.81 439.17 350.80 432.42 350.79 C 432.37 369.06 432.41 387.33 432.40 405.59 C 429.57 405.59 426.74 405.60 423.91 405.60 C 423.91 387.34 423.91 369.07 423.91 350.80 C 417.14 350.80 410.36 350.80 403.59 350.80 Z" />
<path fill="#1d1d1b" opacity="1.00" d=" M 504.08 343.73 C 506.89 343.73 509.70 343.73 512.52 343.73 C 512.56 356.48 512.46 369.23 512.56 381.97 C 512.77 386.40 512.82 391.45 516.09 394.86 C 520.12 399.17 526.57 399.62 532.09 398.96 C 536.26 398.56 540.78 396.71 542.65 392.69 C 544.62 388.44 544.56 383.62 544.67 379.04 C 544.69 367.25 544.66 355.46 544.67 343.67 C 547.49 343.66 550.31 343.66 553.13 343.67 C 553.08 356.46 553.24 369.26 553.06 382.05 C 552.88 388.86 551.48 396.37 546.14 401.10 C 540.06 406.80 531.03 407.22 523.19 406.29 C 516.44 405.42 509.48 401.85 506.63 395.38 C 503.60 387.62 504.12 379.12 504.08 370.95 C 504.08 361.88 504.08 352.81 504.08 343.73 Z" />
<path fill="#1d1d1b" opacity="1.00" d=" M 587.00 343.67 C 589.79 343.67 592.58 343.66 595.38 343.65 C 606.28 359.88 617.06 376.21 627.94 392.47 C 627.96 376.20 627.94 359.94 627.95 343.67 C 630.53 343.67 633.10 343.66 635.69 343.65 C 635.74 364.30 635.70 384.95 635.71 405.60 C 632.99 405.60 630.27 405.59 627.55 405.59 C 616.64 389.37 605.73 373.15 594.78 356.96 C 594.75 373.17 594.77 389.39 594.76 405.60 C 592.17 405.60 589.58 405.60 587.00 405.60 C 586.99 384.96 587.00 364.32 587.00 343.67 Z" />
<path fill="#1d1d1b" opacity="1.00" d=" M 671.57 343.66 C 674.27 343.66 676.98 343.67 679.70 343.68 C 679.68 364.32 679.70 384.96 679.69 405.60 C 676.98 405.60 674.27 405.59 671.56 405.59 C 671.57 384.95 671.56 364.31 671.57 343.66 Z" />
<path fill="#1d1d1b" opacity="1.00" d=" M 708.12 343.67 C 711.04 343.66 713.97 343.66 716.90 343.67 C 723.40 362.07 730.37 380.30 736.50 398.83 C 742.75 380.29 749.89 362.06 756.54 343.66 C 759.34 343.66 762.15 343.66 764.97 343.67 C 756.86 364.32 748.73 384.95 740.62 405.60 C 737.78 405.59 734.95 405.60 732.12 405.60 C 724.11 384.96 716.12 364.32 708.12 343.67 Z" />
<path fill="#1d1d1b" opacity="1.00" d=" M 792.68 343.67 C 807.68 343.67 822.69 343.65 837.71 343.68 C 837.69 346.05 837.69 348.42 837.69 350.80 C 825.51 350.80 813.33 350.80 801.15 350.80 C 801.15 357.13 801.15 363.47 801.15 369.80 C 812.54 369.80 823.92 369.80 835.32 369.80 C 835.31 372.26 835.31 374.73 835.31 377.20 C 823.92 377.20 812.54 377.20 801.15 377.20 C 801.15 384.17 801.15 391.15 801.15 398.13 C 813.78 398.13 826.41 398.13 839.04 398.13 C 839.03 400.62 839.03 403.11 839.03 405.60 C 823.58 405.59 808.12 405.61 792.67 405.59 C 792.68 384.95 792.67 364.31 792.68 343.67 Z" />
<path fill="#1d1d1b" opacity="1.00" d=" M 870.85 343.67 C 880.22 343.68 889.58 343.63 898.95 343.68 C 903.85 343.82 909.10 343.96 913.40 346.63 C 921.11 351.72 923.11 363.94 916.94 370.96 C 913.45 374.92 908.17 376.50 903.19 377.55 C 907.31 379.57 910.80 382.71 913.35 386.53 C 917.56 392.80 921.50 399.25 925.62 405.59 C 922.12 405.60 918.62 405.60 915.13 405.61 C 910.69 398.78 906.66 391.67 901.82 385.11 C 899.50 382.23 896.88 378.94 893.00 378.34 C 888.44 377.98 883.86 378.27 879.30 378.21 C 879.31 387.33 879.29 396.46 879.30 405.59 C 876.48 405.59 873.67 405.60 870.86 405.61 C 870.83 384.96 870.86 364.31 870.85 343.67 M 879.29 350.47 C 879.29 357.35 879.29 364.24 879.29 371.13 C 887.61 370.81 896.07 371.94 904.28 370.23 C 910.21 369.19 913.79 362.12 911.33 356.68 C 909.63 352.63 905.10 350.84 900.98 350.64 C 893.76 350.23 886.52 350.57 879.29 350.47 Z" />
<path fill="#1d1d1b" opacity="1.00" d=" M 1033.22 343.69 C 1036.02 343.67 1038.83 343.66 1041.65 343.65 C 1041.71 364.30 1041.67 384.95 1041.68 405.60 C 1038.86 405.59 1036.05 405.60 1033.25 405.62 C 1033.19 384.97 1033.26 364.33 1033.22 343.69 Z" />
<path fill="#1d1d1b" opacity="1.00" d=" M 1071.81 350.80 C 1071.80 348.42 1071.80 346.04 1071.81 343.67 C 1088.16 343.67 1104.51 343.66 1120.86 343.67 C 1120.85 346.04 1120.85 348.42 1120.86 350.80 C 1114.10 350.80 1107.34 350.80 1100.59 350.80 C 1100.59 369.07 1100.59 387.33 1100.59 405.60 C 1097.76 405.59 1094.93 405.60 1092.11 405.60 C 1092.11 387.33 1092.11 369.07 1092.11 350.80 C 1085.34 350.80 1078.57 350.80 1071.81 350.80 Z" />
<path fill="#1d1d1b" opacity="1.00" d=" M 1143.18 343.67 C 1146.55 343.66 1149.93 343.66 1153.31 343.66 C 1159.51 353.35 1166.09 362.81 1171.91 372.75 C 1177.87 362.90 1184.37 353.39 1190.61 343.72 C 1193.73 343.73 1196.85 343.73 1199.99 343.74 C 1193.13 353.65 1186.28 363.56 1179.38 373.43 C 1177.69 376.09 1174.97 378.56 1175.32 381.99 C 1175.30 389.87 1175.35 397.76 1175.34 405.65 C 1172.63 405.66 1169.92 405.67 1167.23 405.68 C 1167.23 398.78 1167.20 391.89 1167.27 385.00 C 1167.19 382.35 1167.64 379.39 1165.85 377.17 C 1158.28 366.01 1150.72 354.85 1143.18 343.67 Z" />
</g>
</svg>
